# xmcd
# 
# Track frame offsets:
#     150
#     16097
#     31380
#     48465
#     63245
#     77890
#     93935
#     109360
#     124975
#     143765
#     161477
#     177747
#     194402
#     211942
#     231432
#     250872
#     275362
#     295840
#     311387
#     329210
# 
# Disc length: 4606
# 
# Revision: 0
# Processed by: cddbd v1.5.2PL0 Copyright (c) Steve Scherf et al.
# Submitted via: fre:ac v1.0.17
# 
DISCID=2a11fc14
DTITLE=フランク永井 - フランク永井〈New Best One〉
DYEAR=2002
DGENRE=JPop
TTITLE0=おまえに
TTITLE1=大阪ぐらし
TTITLE2=逢いたくて
TTITLE3=羽田発7時50分
TTITLE4=夜霧の第二国道
TTITLE5=有楽町で逢いましょう
TTITLE6=東京午前三時
TTITLE7=西銀座駅前
TTITLE8=俺は淋しいんだ
TTITLE9=夜霧に消えたチャコ
TTITLE10=こいさんのラブ・コール
TTITLE11=ラブ・レター
TTITLE12=公園の手品師
TTITLE13=悲しみは消えない
TTITLE14=初恋の詩
TTITLE15=妻を恋うる唄
TTITLE16=霧子のタンゴ
TTITLE17=好き好き好き
TTITLE18=東京ナイト・クラブ
TTITLE19=君恋し
EXTD=
EXTT0=
EXTT1=
EXTT2=
EXTT3=
EXTT4=
EXTT5=
EXTT6=
EXTT7=
EXTT8=
EXTT9=
EXTT10=
EXTT11=
EXTT12=
EXTT13=
EXTT14=
EXTT15=
EXTT16=
EXTT17=
EXTT18=
EXTT19=
PLAYORDER=
